<svg width="525" height="430" viewBox="0 0 525 430" fill="none" xmlns="http://www.w3.org/2000/svg">
<path d="M91.1394 372.672C92.3297 385.372 91.4078 415.329 91.3879 429.31C55.12 429.77 18.0668 429.118 -18.2947 429.371C-30.9965 429.463 -68.6073 430.177 -79.6126 428.275C-89.8264 426.526 -99.4558 422.292 -107.655 415.958C-122.121 404.676 -128.904 390.027 -131.071 372.15C-131.894 354.211 -131.4 332.868 -131.392 314.668L-19.9352 314.446C-6.13504 314.43 28.5329 313.602 40.4501 315.849C50.9093 317.782 60.7028 322.345 68.9041 329.117C82.4971 340.399 89.4881 355.27 91.1394 372.672Z" fill="#FE3800"/>
<path d="M-0.171348 -42.3181C0.754388 -4.77651 0.0595161 38.218 -0.143733 76.1737L-41.4038 76.4498C-67.132 76.4958 -88.6049 78.0909 -109.509 59.7075C-123.751 47.1834 -130.128 31.2541 -131.293 12.5792C-132.484 -25.8366 -131.436 -69.8204 -131.437 -108.677L-89.3182 -108.747C-63.1813 -108.766 -42.4684 -110.638 -21.3153 -91.4381C-6.60855 -78.0896 -1.01195 -61.7446 -0.171348 -42.3181Z" fill="#FE3800"/>
<path d="M276.087 62.0312C276.955 78.8654 276.511 99.2429 276.506 116.353C238.548 116.844 200.45 115.893 162.478 116.238C150.275 115.816 137.377 117.182 125.295 115.418C94.0063 110.839 75.9663 90.17 69.3642 60.8424C67.749 45.4499 68.4853 20.1641 68.4976 4.11974L167.759 4.11207C181.367 4.09673 210.195 3.23783 222.276 5.33157C232.096 7.01883 241.407 10.8995 249.51 16.6975C265.357 28.0635 272.927 43.2029 276.087 62.0312Z" fill="#971AFE"/>
<path d="M91.5401 120.339C92.0885 161.554 92.0762 202.769 91.5033 243.985C91.3598 261.877 84.0797 278.98 71.2782 291.489C51.5485 310.44 31.3634 310.064 6.1192 310.041C-5.51809 310.072 -17.1554 309.995 -28.7919 309.818C-28.6431 285.813 -28.6645 261.808 -28.857 237.795L-28.8279 203.46C-28.7328 178.496 -28.7021 158.686 -9.48793 139.42C10.438 119.434 31.6441 120.025 57.5141 120.255L91.5401 120.339Z" fill="#009CFE"/>
<path d="M276.388 120.077L276.461 204.118C276.47 218.283 277.456 246.92 274.5 259.582C271.758 271.363 265.801 282.138 257.293 290.728C238.242 309.847 218.191 309.97 193.438 309.978L159.632 309.986L159.41 208.336C159.373 182.122 158.936 159.359 179.171 139.334C198.461 120.238 218.371 120.061 243.398 120.046L276.388 120.077Z" fill="#00EB6D"/>
<path d="M156.257 176.118C156.47 195.774 156.505 215.423 156.361 235.08L136.737 235.18C94.735 235.241 93.7463 212.417 93.9343 178.618C93.8675 159.199 93.9327 139.78 94.1298 120.361C126.521 120.101 155.844 116.872 156.103 160.802C156.132 165.779 156.224 171.102 156.257 176.118Z" fill="#FE3800"/>
<path d="M347.019 3.63152L396.548 3.60751C418.635 3.55298 453.5 -0.998931 458.554 31.7254C459.337 36.8096 459.874 60.4631 458.708 64.6684C436.459 64.5748 413.259 65.1531 391.026 65.0296C344.273 64.7704 346.812 38.9495 347.019 3.63152Z" fill="#00EB6D"/>
<path d="M341.95 4.24618C341.165 26.1116 342.246 50.3468 342.111 72.3425C341.829 118.604 316.886 116.472 280.879 116.211C280.4 92.9501 280.869 69.1137 280.727 45.8985C280.455 1.20906 309.217 3.88572 341.95 4.24618Z" fill="#009CFE"/>
<path d="M65.624 -108.721C65.4768 -87.1334 65.4836 -65.5479 65.6455 -43.9586C65.6769 1.84287 39.6443 -0.527003 4.191 -0.856788C2.26436 -3.64077 3.62422 -38.4597 3.41331 -44.7639C2.30733 -77.7637 0.965113 -109.977 44.5629 -108.774C50.6105 -108.607 59.2582 -108.756 65.624 -108.721Z" fill="#971AFE"/>
<path d="M342.024 -108.667C341.792 -85.6519 342.201 -62.6284 342.025 -39.5589C342.223 -28.4383 339.096 -17.5555 330.859 -9.67143C318.583 2.07037 296.796 -0.721243 280.833 -0.912978L280.727 -47.5197C280.651 -68.994 277.055 -97.5172 302.634 -106.557C312.392 -110.006 331.089 -108.787 342.024 -108.667Z" fill="#971AFE"/>
<path d="M275.906 -21.871C276.074 -15.145 275.927 -7.69797 275.926 -0.92592L231.004 -0.925922C207.352 -0.787874 177.196 3.37657 174.285 -29.4177L174.203 -52.5714L219.723 -52.6098C245.283 -52.7172 273.093 -56.4982 275.906 -21.871Z" fill="#00EB6D"/>
<path d="M-0.135551 99.7457C0.0577257 104.976 -0.118705 110.912 -0.162422 116.197C-14.0454 116.197 -49.6767 119.54 -59.8996 111.426C-64.2798 107.944 -65.9656 103.289 -66.6152 97.8974L-66.435 79.5139C-52.9255 79.4066 -39.4168 79.2761 -25.9035 79.2531C-19.0591 79.2378 -11.9301 80.1351 -6.57047 84.8364C-1.58361 89.208 -0.651724 93.5412 -0.135551 99.7457Z" fill="#971AFE"/>
<path d="M65.4687 78.6498C65.5745 109.136 64.6595 118.715 29.6663 116.276C22.6148 115.785 10.8241 116.199 3.40673 116.207C3.27481 105.608 1.65191 91.9792 9.65987 83.7959C16.8418 76.4487 28.7276 78.4274 38.1429 78.412C47.2124 78.3967 56.3793 78.5731 65.4687 78.6498Z" fill="#971AFE"/>
<path d="M65.748 41.5446C65.0056 81.0495 55.7552 75.6043 18.5784 75.865C13.6253 75.8957 8.35393 75.7577 3.3709 75.6963C3.27426 72.1147 3.23206 68.5331 3.24587 64.9515C3.55726 40.6473 20.2612 39.9493 39.21 40.9234C47.7594 41.3682 57.1572 41.3299 65.748 41.5446Z" fill="#00EB6D"/>
<path d="M65.4396 4.1453C65.4918 6.47679 65.5301 8.80828 65.5554 11.1398C65.7257 28.5109 60.689 39.0946 41.3045 39.0716C28.6993 39.0486 15.9875 38.7188 3.37695 38.4888C3.4268 28.4496 1.93808 17.1755 9.69371 9.30677C17.0152 1.87515 29.533 4.05324 39.0872 4.01489C47.8691 3.97654 56.67 4.11463 65.4396 4.1453Z" fill="#FE3800"/>
<path d="M524.264 4.1453C524.316 6.47679 524.354 8.80828 524.38 11.1398C524.55 28.5109 519.513 39.0946 500.129 39.0716C487.524 39.0486 474.812 38.7188 462.201 38.4888C462.251 28.4496 460.762 17.1755 468.518 9.30677C475.839 1.87515 488.357 4.05324 497.911 4.01489C506.693 3.97654 515.494 4.11463 524.264 4.1453Z" fill="#FE3800"/>
<path d="M156.336 294.406L156.442 309.982C136.111 309.859 99.0053 317.207 94.4303 292.527C94.3482 286.905 94.415 281.145 94.4119 275.516C116.198 275.201 151.918 267.563 156.336 294.406Z" fill="#971AFE"/>
<path d="M406.476 -18.5878C406.881 -13.3803 406.725 -6.31678 406.752 -0.95589C386.46 -0.787165 352.44 5.9159 345.914 -17.0232C345.654 -22.6295 345.74 -29.1791 345.673 -34.8621C365.675 -34.9312 400.622 -41.987 406.476 -18.5878Z" fill="#FE3800"/>
<path d="M156.301 258.413C156.436 262.747 156.274 267.793 156.237 272.188C135.407 271.981 99.9226 280.156 94.3897 254.947C93.8958 250.215 93.9172 244.233 93.8145 239.37C101.293 239.225 108.85 239.071 116.322 239.056C134.278 239.018 152.736 235.398 156.301 258.413Z" fill="#FE3800"/>
</svg>
