<svg width="123" height="32" viewBox="0 0 123 32" fill="none" xmlns="http://www.w3.org/2000/svg">
<path d="M25.8385 6.00093C24.7769 5.97761 23.6601 6.57511 22.8364 7.49632C22.3099 8.08497 21.6128 8.42453 20.9812 8.42453C20.3492 8.42453 19.8615 8.07097 19.6677 7.48373C19.3717 6.58724 18.6214 6 17.5829 6C16.5444 6 15.4594 6.58678 14.6522 7.48373C14.1241 8.07051 13.4343 8.42453 12.8023 8.42453C12.1708 8.42453 11.667 8.08497 11.4761 7.49632C11.1772 6.57511 10.4013 5.97761 9.32657 6.00093C7.65774 6.03731 5.87306 7.59288 5.34537 9.46981C4.81066 11.371 5.7366 12.9093 7.41821 12.9093C8.39156 12.9093 9.4049 12.3939 10.1923 11.5916C10.7691 11.0039 11.4938 10.6672 12.1547 10.6672C12.8159 10.6672 13.3482 11.0044 13.5902 11.5916C13.9204 12.3939 14.6402 12.9093 15.6131 12.9093C16.5861 12.9093 17.5998 12.3939 18.3872 11.5916C18.964 11.0039 19.6888 10.6672 20.3496 10.6672C21.0109 10.6672 21.5431 11.0044 21.7851 11.5916C22.1153 12.3939 22.8351 12.9093 23.8081 12.9093C25.4901 12.9093 27.2925 11.3705 27.8416 9.46981C28.3846 7.59334 27.4863 6.03731 25.8385 6.00093Z" fill="white"/>
<path d="M20.8539 22.1214C21.3383 20.4222 22.8224 19.0089 24.333 18.7141C24.6735 18.6474 24.9967 18.3279 25.1022 17.958L25.9416 15.013C26.0628 14.5876 25.8563 14.2429 25.4807 14.2429H4.98678C4.61079 14.2429 4.20801 14.5876 4.08681 15.013L3.24745 17.958C3.14191 18.3279 3.2829 18.6479 3.5855 18.7141C4.92782 19.0089 5.6064 20.4222 5.122 22.1214C4.63759 23.8207 3.15345 25.234 1.64293 25.5288C1.3024 25.5955 0.979185 25.915 0.873646 26.2848L0.0346947 29.2299C-0.08651 29.6553 0.120033 30 0.495603 30H20.9891C21.3651 30 21.7679 29.6553 21.8891 29.2299L22.7284 26.2848C22.834 25.915 22.693 25.595 22.3904 25.5288C21.0481 25.234 20.3695 23.8207 20.8539 22.1214Z" fill="white"/>
<path d="M36.4874 25.6154C36.4874 25.7043 36.4097 25.7763 36.3139 25.7763H33.5067C33.4109 25.7763 33.3333 25.7043 33.3333 25.6154V13.718C33.3333 13.6292 33.4109 13.5571 33.5067 13.5571H36.3139C36.4097 13.5571 36.4874 13.6292 36.4874 13.718V25.6154Z" fill="white"/>
<path d="M41.1555 25.6154C41.1555 25.7043 41.0778 25.7763 40.982 25.7763H38.3418C38.246 25.7763 38.1683 25.7043 38.1683 25.6154V13.718C38.1683 13.6292 38.246 13.5571 38.3418 13.5571H41.7227C41.785 13.5571 41.8425 13.5881 41.8734 13.6382L46.6523 21.3999C46.6964 21.4715 46.8144 21.4425 46.8144 21.36V13.718C46.8144 13.6292 46.8921 13.5571 46.9879 13.5571H49.591C49.6868 13.5571 49.7645 13.6292 49.7645 13.718V25.6154C49.7645 25.7043 49.6868 25.7763 49.591 25.7763H46.3961C46.3336 25.7763 46.2759 25.7451 46.2451 25.6946L41.3178 17.6096C41.2739 17.5376 41.1555 17.5665 41.1555 17.6492V25.6154Z" fill="white"/>
<path d="M57.2422 26C53.55 26 51.2308 23.4529 51.2308 19.8388V19.4946C51.2308 15.8977 53.7727 13.3334 57.7432 13.3334C60.9816 13.3334 63.0558 15.0679 63.5183 17.452C63.537 17.5486 63.4557 17.6359 63.3499 17.6359H60.5319C60.4522 17.6359 60.3833 17.5854 60.3611 17.5145C60.0178 16.4147 59.1377 15.7256 57.6875 15.7256C55.591 15.7256 54.4777 17.2401 54.4777 19.4946V19.8388C54.4777 22.1105 55.6466 23.6078 57.8174 23.6078C59.8256 23.6078 60.8124 22.55 60.9736 21.266C60.9852 21.1737 60.9054 21.0952 60.8053 21.0952H57.6941C57.5982 21.0952 57.5206 21.0231 57.5206 20.9342V19.0876C57.5206 18.9987 57.5982 18.9267 57.6941 18.9267H63.4327C63.5285 18.9267 63.6062 18.9987 63.6062 19.0876V25.6154C63.6062 25.7043 63.5285 25.7763 63.4327 25.7763H61.4912C61.4057 25.7763 61.3329 25.7185 61.3198 25.6401L61.1204 24.4513C61.1079 24.3765 60.9981 24.3562 60.9516 24.4184C60.2549 25.3501 58.9115 26 57.2422 26Z" fill="white"/>
<path d="M68.2132 25.6154C68.2132 25.7043 68.1355 25.7763 68.0397 25.7763H65.2882C65.1924 25.7763 65.1147 25.7043 65.1147 25.6154V13.718C65.1147 13.6292 65.1924 13.5571 65.2882 13.5571H71.0891C73.8907 13.5571 75.9873 14.9339 75.9873 17.5154V17.6875C75.9873 19.5075 74.9733 20.7169 73.3809 21.2836C73.3288 21.3021 73.3073 21.3604 73.3375 21.404L76.2044 25.5282C76.2788 25.6353 76.196 25.7763 76.0586 25.7763H73.0413C72.9811 25.7763 72.9252 25.7474 72.8936 25.6999L70.2493 21.7223C70.2177 21.6748 70.1618 21.6459 70.1016 21.6459H68.3867C68.2909 21.6459 68.2132 21.7179 68.2132 21.8068V25.6154ZM68.3867 15.9149C68.2909 15.9149 68.2132 15.9869 68.2132 16.0758V19.1272C68.2132 19.216 68.2909 19.2881 68.3867 19.2881H70.7551C71.9425 19.2881 72.7589 18.8062 72.7589 17.6875V17.5154C72.7589 16.3968 71.9425 15.9149 70.7551 15.9149H68.3867Z" fill="white"/>
<path d="M87.4413 25.6154C87.4413 25.7043 87.3636 25.7763 87.2678 25.7763H77.7441C77.6483 25.7763 77.5706 25.7043 77.5706 25.6154V13.718C77.5706 13.6292 77.6483 13.5571 77.7441 13.5571H87.1193C87.2152 13.5571 87.2928 13.6292 87.2928 13.718V15.754C87.2928 15.8428 87.2152 15.9149 87.1193 15.9149H80.8241C80.7282 15.9149 80.6506 15.9869 80.6506 16.0758V18.2494C80.6506 18.3383 80.7282 18.4104 80.8241 18.4104H86.4329C86.5287 18.4104 86.6063 18.4824 86.6063 18.5713V20.5384C86.6063 20.6273 86.5287 20.6993 86.4329 20.6993H80.8241C80.7282 20.6993 80.6506 20.7714 80.6506 20.8602V23.2576C80.6506 23.3465 80.7282 23.4185 80.8241 23.4185H87.2678C87.3636 23.4185 87.4413 23.4906 87.4413 23.5794V25.6154Z" fill="white"/>
<path d="M94.0646 26C90.653 26 88.5726 24.4854 88.3093 21.9553C88.2997 21.8628 88.3793 21.7836 88.4796 21.7836H91.241C91.3279 21.7836 91.4009 21.8436 91.4165 21.9229C91.6526 23.1214 92.6374 23.7283 94.1388 23.7283C95.5304 23.7283 96.3467 23.2464 96.3467 22.4203V22.3515C96.3467 21.5254 95.753 21.164 93.2668 20.7509C90.0941 20.2174 88.7397 19.116 88.7397 17.1024V16.9819C88.7397 14.7446 90.8919 13.3334 93.8605 13.3334C96.87 13.3334 98.9229 14.6643 99.2229 17.1175C99.2344 17.2109 99.1544 17.2917 99.0531 17.2917H96.2989C96.2101 17.2917 96.1362 17.229 96.1222 17.1476C95.9407 16.0927 95.1194 15.5879 93.8049 15.5879C92.469 15.5879 91.8382 16.1386 91.8382 16.8615V16.9131C91.8382 17.6187 92.2092 18.0145 94.714 18.3932C97.7383 18.8578 99.4638 19.9077 99.4638 22.0245V22.1622C99.4638 24.5372 97.2002 26 94.0646 26Z" fill="white"/>
<path d="M106.068 26C102.656 26 100.576 24.4854 100.312 21.9553C100.303 21.8628 100.382 21.7836 100.483 21.7836H103.244C103.331 21.7836 103.404 21.8436 103.419 21.9229C103.656 23.1214 104.64 23.7283 106.142 23.7283C107.533 23.7283 108.35 23.2464 108.35 22.4203V22.3515C108.35 21.5254 107.756 21.164 105.27 20.7509C102.097 20.2174 100.743 19.116 100.743 17.1024V16.9819C100.743 14.7446 102.895 13.3334 105.863 13.3334C108.873 13.3334 110.926 14.6643 111.226 17.1175C111.237 17.2109 111.157 17.2917 111.056 17.2917H108.302C108.213 17.2917 108.139 17.229 108.125 17.1476C107.944 16.0927 107.122 15.5879 105.808 15.5879C104.472 15.5879 103.841 16.1386 103.841 16.8615V16.9131C103.841 17.6187 104.212 18.0145 106.717 18.3932C109.741 18.8578 111.467 19.9077 111.467 22.0245V22.1622C111.467 24.5372 109.203 26 106.068 26Z" fill="white"/>
<path d="M122.667 25.6154C122.667 25.7043 122.589 25.7763 122.493 25.7763H112.969C112.874 25.7763 112.796 25.7043 112.796 25.6154V13.718C112.796 13.6292 112.874 13.5571 112.969 13.5571H122.345C122.44 13.5571 122.518 13.6292 122.518 13.718V15.754C122.518 15.8428 122.44 15.9149 122.345 15.9149H116.049C115.954 15.9149 115.876 15.9869 115.876 16.0758V18.2494C115.876 18.3383 115.954 18.4104 116.049 18.4104H121.658C121.754 18.4104 121.832 18.4824 121.832 18.5713V20.5384C121.832 20.6273 121.754 20.6993 121.658 20.6993H116.049C115.954 20.6993 115.876 20.7714 115.876 20.8602V23.2576C115.876 23.3465 115.954 23.4185 116.049 23.4185H122.493C122.589 23.4185 122.667 23.4906 122.667 23.5794V25.6154Z" fill="white"/>
</svg>
